<svg xmlns="http://www.w3.org/2000/svg" width="34.001" height="33.999" viewBox="0 0 34.001 33.999">
  <g id="Active" transform="translate(-1175 -259)">
    <circle id="Ellipse_19" data-name="Ellipse 19" cx="9" cy="9" r="9" transform="translate(1183 267)" fill="#334357"/>
    <path id="Subtraction_1" data-name="Subtraction 1" d="M-7483-4842a16.891,16.891,0,0,1-12.021-4.979A16.888,16.888,0,0,1-7500-4859a16.891,16.891,0,0,1,4.979-12.021A16.891,16.891,0,0,1-7483-4876a16.891,16.891,0,0,1,12.021,4.979A16.891,16.891,0,0,1-7466-4859a16.888,16.888,0,0,1-4.979,12.02A16.891,16.891,0,0,1-7483-4842Zm0-26a9.011,9.011,0,0,0-9,9,9.01,9.01,0,0,0,9,9,9.009,9.009,0,0,0,9-9A9.01,9.01,0,0,0-7483-4868Z" transform="translate(8675 5135)" fill="#667281"/>
    <path id="Circle" d="M39,0a9,9,0,1,0,9,9A9.026,9.026,0,0,0,39,0Zm0,1.8A7.2,7.2,0,1,1,31.8,9,7.221,7.221,0,0,1,39,1.8Z" transform="translate(1153 267)" fill="#fff"/>
  </g>
</svg>
