<svg xmlns="http://www.w3.org/2000/svg" width="22" height="25" viewBox="0 0 22 25">
    <g fill="#FFF">
        <path d="M17.761 6.662c0-1.427-.523-2.741-1.4-3.79L17.564.77c.086-.15.032-.34-.116-.426-.152-.087-.344-.035-.429.116l-1.106 1.93C14.68 1.19 12.93.44 10.994.44c-1.94 0-3.69.75-4.922 1.953L4.963.46C4.878.31 4.685.257 4.536.344 4.385.43 4.332.62 4.42.77l1.206 2.104c-.877 1.048-1.397 2.361-1.397 3.787H17.76zm-4.177-3.311c.3 0 .542.241.542.54 0 .299-.242.54-.542.54-.299 0-.541-.242-.541-.54 0-.298.242-.54.541-.54zm-5.175 0c.3 0 .543.241.543.54 0 .299-.242.54-.543.54-.299 0-.54-.242-.54-.54 0-.298.242-.54.54-.54zM18.812 16.463h.006c.058.723.715 1.293 1.516 1.293.8 0 1.458-.57 1.517-1.293h.004V9.717h-.002c.002-.026.002-.052.002-.078 0-.773-.68-1.399-1.52-1.399s-1.522.627-1.522 1.399l.003.078h-.003v6.746h-.001zM.145 16.466h.004c.058.724.715 1.294 1.516 1.294.803 0 1.458-.57 1.517-1.294h.004V9.72l.001-.078c0-.773-.68-1.4-1.52-1.4S.145 8.87.145 9.643c0 .025 0 .052.002.078H.145v6.746zM17.834 7.495c0-.106-.086-.193-.194-.193H4.348c-.108 0-.194.087-.194.193v10.07c0 .029.006.055.016.079-.01.067-.016.136-.016.205 0 .692.545 1.267 1.263 1.378v.021h.597v4.157h.006c.059.723.715 1.293 1.517 1.293.8 0 1.458-.57 1.516-1.293h.005v-4.156h3.874v4.156h.006c.06.724.715 1.293 1.516 1.293.8 0 1.459-.569 1.516-1.293h.006v-4.156h.592v-.02c.72-.11 1.267-.686 1.267-1.38 0-.069-.004-.137-.015-.205.01-.024.015-.049.015-.078V7.496z"/>
    </g>
</svg>
