<svg xmlns="http://www.w3.org/2000/svg" width="21" height="25" viewBox="0 0 21 25">
    <path fill="#FFF" d="M20.56 19.483c-.377.873-.823 1.677-1.34 2.416-.705 1.008-1.282 1.705-1.727 2.093-.69.635-1.428.961-2.22.98-.567 0-1.252-.162-2.05-.491-.799-.327-1.534-.49-2.206-.49-.705 0-1.46.163-2.27.49-.809.329-1.461.5-1.96.517-.759.032-1.515-.303-2.27-1.006-.481-.422-1.084-1.144-1.805-2.167-.775-1.092-1.411-2.36-1.91-3.804C.268 16.461 0 14.951 0 13.488c0-1.676.361-3.12 1.084-4.332.568-.972 1.325-1.74 2.27-2.303.947-.563 1.97-.85 3.07-.868.603 0 1.393.186 2.375.554.98.368 1.608.555 1.883.555.206 0 .905-.218 2.089-.654 1.12-.404 2.064-.571 2.838-.505 2.098.17 3.674.998 4.722 2.492-1.876 1.14-2.804 2.736-2.786 4.784.017 1.595.594 2.923 1.728 3.977.514.49 1.088.867 1.727 1.136-.139.402-.285.788-.44 1.159zM15.75.5c0 1.25-.456 2.418-1.364 3.498-1.096 1.285-2.421 2.027-3.858 1.91-.019-.15-.03-.308-.03-.474 0-1.2.522-2.485 1.447-3.535.462-.532 1.05-.974 1.762-1.326.711-.348 1.384-.54 2.016-.573.019.167.026.334.026.5z"/>
</svg>
