<?xml version="1.0" encoding="utf-8"?>
<!-- Generator: Adobe Illustrator 24.0.2, SVG Export Plug-In . SVG Version: 6.00 Build 0)  -->
<svg version="1.1" id="Layer_1" xmlns="http://www.w3.org/2000/svg" x="0px" y="0px"
     viewBox="0 0 119.5 31" style="enable-background:new 0 0 119.5 31;" xml:space="preserve">
<style type="text/css">
	.st0{enable-background:new    ;}
	.st1{fill:#FFFFFF;}
	.st2{fill-rule:evenodd;clip-rule:evenodd;fill:url(#Path_578_1_);}
</style>
<g>
	<g class="st0">
		<path class="st1" d="M43.7,10c0,1.9-0.5,3.3-1.5,4.3s-2.5,1.5-4.4,1.5h-3.2V4.4h3.5c1.8,0,3.2,0.5,4.1,1.5S43.7,8.2,43.7,10z
			 M42.3,10c0-1.5-0.4-2.6-1.1-3.4c-0.7-0.8-1.9-1.1-3.3-1.1h-1.9v9.1h1.6c1.6,0,2.8-0.4,3.6-1.2S42.3,11.6,42.3,10z"/>
		<path class="st1" d="M56.2,10.1c0,1.8-0.5,3.3-1.4,4.3c-0.9,1-2.2,1.6-3.9,1.6c-1.7,0-3-0.5-3.9-1.5s-1.4-2.5-1.4-4.4
			c0-1.9,0.5-3.3,1.4-4.3c0.9-1,2.2-1.5,3.9-1.5c1.6,0,2.9,0.5,3.8,1.6S56.2,8.3,56.2,10.1z M47.1,10.1c0,1.5,0.3,2.7,1,3.5
			c0.7,0.8,1.6,1.2,2.9,1.2c1.3,0,2.2-0.4,2.9-1.2c0.6-0.8,1-2,1-3.5c0-1.5-0.3-2.7-1-3.5c-0.6-0.8-1.6-1.2-2.9-1.2
			c-1.3,0-2.2,0.4-2.9,1.2C47.4,7.4,47.1,8.6,47.1,10.1z"/>
		<path class="st1" d="M60.1,11.1v4.8h-1.3V4.4h3.1c1.4,0,2.4,0.3,3.1,0.8c0.7,0.5,1,1.3,1,2.4c0,1.5-0.8,2.5-2.3,3.1l3.1,5.1h-1.6
			l-2.8-4.8H60.1z M60.1,9.9h1.8c0.9,0,1.6-0.2,2.1-0.6s0.7-0.9,0.7-1.7c0-0.8-0.2-1.3-0.7-1.6s-1.2-0.5-2.1-0.5h-1.7V9.9z"/>
		<path class="st1" d="M75.1,12.8c0,1-0.4,1.8-1.1,2.4c-0.7,0.6-1.7,0.8-3,0.8c-1.4,0-2.4-0.2-3.1-0.5v-1.3c0.5,0.2,1,0.4,1.5,0.5
			c0.6,0.1,1.1,0.2,1.6,0.2c0.9,0,1.6-0.2,2-0.5c0.4-0.3,0.7-0.8,0.7-1.4c0-0.4-0.1-0.7-0.2-1c-0.2-0.3-0.4-0.5-0.8-0.7
			c-0.4-0.2-0.9-0.5-1.7-0.7c-1.1-0.4-1.8-0.8-2.3-1.4c-0.5-0.5-0.7-1.2-0.7-2c0-0.9,0.3-1.6,1-2.1c0.7-0.5,1.5-0.8,2.6-0.8
			c1.1,0,2.2,0.2,3.1,0.6L74.4,6c-0.9-0.4-1.9-0.6-2.8-0.6c-0.7,0-1.3,0.2-1.6,0.5c-0.4,0.3-0.6,0.7-0.6,1.3c0,0.4,0.1,0.7,0.2,1
			c0.1,0.3,0.4,0.5,0.7,0.7c0.3,0.2,0.9,0.4,1.6,0.7c1.2,0.4,2,0.9,2.5,1.4C74.8,11.4,75.1,12,75.1,12.8z"/>
		<path class="st1" d="M84.6,15.8l-1.4-3.6h-4.6l-1.4,3.6h-1.3l4.5-11.5h1.1L86,15.8H84.6z M82.8,11l-1.3-3.5
			c-0.2-0.4-0.3-1-0.5-1.6c-0.1,0.5-0.3,1-0.5,1.6L79.1,11H82.8z"/>
	</g>
	<g class="st0">
		<path class="st1" d="M39.3,20.4v4.2c0,0.7-0.2,1.3-0.6,1.7s-1,0.6-1.8,0.6c-0.7,0-1.3-0.2-1.7-0.6c-0.4-0.4-0.6-1-0.6-1.7v-4.1
			h0.5v4.2c0,0.6,0.2,1.1,0.5,1.4c0.3,0.3,0.8,0.5,1.5,0.5c0.6,0,1.1-0.2,1.4-0.5c0.3-0.3,0.5-0.8,0.5-1.4v-4.2H39.3z"/>
		<path class="st1" d="M44.9,22.2c0,0.6-0.2,1.1-0.6,1.4s-1,0.5-1.8,0.5h-1v2.7H41v-6.4h1.6C44.1,20.4,44.9,21,44.9,22.2z
			 M41.5,23.8h0.9c0.7,0,1.2-0.1,1.6-0.4c0.3-0.2,0.5-0.6,0.5-1.2c0-0.5-0.2-0.9-0.5-1.1c-0.3-0.2-0.8-0.4-1.4-0.4h-1.1V23.8z"/>
		<path class="st1" d="M51.4,26.8H51l-1.4-5c-0.1-0.4-0.2-0.7-0.3-1c0,0.3-0.1,0.5-0.2,0.9c-0.1,0.3-0.6,2-1.4,5.1h-0.4l-1.8-6.4
			h0.5l1.1,4.1c0,0.2,0.1,0.3,0.1,0.5c0,0.1,0.1,0.3,0.1,0.4c0,0.1,0.1,0.2,0.1,0.4c0,0.1,0,0.2,0.1,0.3c0.1-0.4,0.2-1,0.4-1.8
			l1.1-3.9h0.5l1.3,4.5c0.1,0.5,0.3,0.9,0.3,1.2c0-0.2,0.1-0.4,0.1-0.7c0.1-0.2,0.5-1.9,1.4-5h0.5L51.4,26.8z"/>
		<path class="st1" d="M57.4,24.5h-2.6l-0.9,2.3h-0.5l2.6-6.5h0.3l2.5,6.5h-0.5L57.4,24.5z M55,24.1h2.3l-0.9-2.3
			c-0.1-0.2-0.2-0.4-0.3-0.8c-0.1,0.3-0.2,0.5-0.3,0.8L55,24.1z"/>
		<path class="st1" d="M60.2,24v2.8h-0.4v-6.4h1.5c0.8,0,1.4,0.1,1.8,0.4c0.4,0.3,0.6,0.7,0.6,1.3c0,0.4-0.1,0.8-0.3,1.1
			c-0.2,0.3-0.6,0.5-1,0.6l1.7,2.9h-0.5L61.8,24H60.2z M60.2,23.6h1.2c0.5,0,1-0.1,1.3-0.4c0.3-0.2,0.4-0.6,0.4-1.1
			c0-0.5-0.1-0.8-0.4-1.1s-0.8-0.3-1.4-0.3h-1.1V23.6z"/>
		<path class="st1" d="M69.9,23.5c0,1.1-0.3,1.9-0.8,2.4c-0.6,0.6-1.4,0.8-2.5,0.8h-1.5v-6.4h1.7c1,0,1.8,0.3,2.3,0.8
			C69.7,21.7,69.9,22.5,69.9,23.5z M69.4,23.6c0-0.9-0.2-1.6-0.7-2.1c-0.5-0.5-1.2-0.7-2.1-0.7h-1.2v5.6h1.1
			C68.5,26.4,69.4,25.5,69.4,23.6z"/>
		<path class="st1" d="M73.4,25.2c0-0.4,0.1-0.7,0.3-1c0.2-0.3,0.6-0.6,1.2-0.9l-0.3-0.4c-0.2-0.2-0.3-0.4-0.4-0.6S74,21.9,74,21.7
			c0-0.4,0.1-0.8,0.4-1c0.3-0.2,0.7-0.4,1.1-0.4c0.5,0,0.8,0.1,1.1,0.4c0.3,0.2,0.4,0.6,0.4,1c0,0.3-0.1,0.6-0.3,0.8
			c-0.2,0.3-0.6,0.5-1.1,0.9l2,2c0.2-0.2,0.3-0.4,0.5-0.7s0.2-0.5,0.3-0.9h0.4c-0.2,0.7-0.5,1.3-0.9,1.9l1.2,1.2h-0.6l-0.8-0.9
			c-0.3,0.3-0.5,0.5-0.7,0.6c-0.2,0.1-0.4,0.2-0.7,0.3c-0.3,0.1-0.5,0.1-0.9,0.1c-0.6,0-1.1-0.2-1.4-0.5
			C73.6,26.1,73.4,25.7,73.4,25.2z M75.4,26.5c0.4,0,0.7-0.1,1-0.2c0.3-0.1,0.6-0.3,0.9-0.6l-2.1-2.1c-0.4,0.2-0.7,0.4-0.9,0.5
			c-0.2,0.1-0.3,0.3-0.4,0.5c-0.1,0.2-0.1,0.4-0.1,0.6c0,0.4,0.1,0.7,0.4,1C74.5,26.4,74.9,26.5,75.4,26.5z M74.5,21.6
			c0,0.2,0.1,0.4,0.2,0.6s0.3,0.5,0.7,0.8c0.5-0.2,0.8-0.5,1-0.7c0.2-0.2,0.3-0.5,0.3-0.7c0-0.3-0.1-0.5-0.3-0.7
			c-0.2-0.2-0.4-0.3-0.7-0.3c-0.3,0-0.6,0.1-0.8,0.3C74.6,21.1,74.5,21.3,74.5,21.6z"/>
		<path class="st1" d="M87.9,23.6c0,1-0.3,1.8-0.8,2.4c-0.5,0.6-1.2,0.9-2.1,0.9c-0.9,0-1.6-0.3-2.1-0.9c-0.5-0.6-0.8-1.4-0.8-2.4
			c0-1,0.3-1.8,0.8-2.4c0.5-0.6,1.2-0.9,2.1-0.9c0.9,0,1.6,0.3,2.1,0.9C87.6,21.8,87.9,22.6,87.9,23.6z M82.6,23.6
			c0,0.9,0.2,1.6,0.6,2.1c0.4,0.5,1,0.8,1.8,0.8c0.8,0,1.4-0.2,1.8-0.7c0.4-0.5,0.6-1.2,0.6-2.1c0-0.9-0.2-1.6-0.6-2.1
			c-0.4-0.5-1-0.7-1.8-0.7c-0.8,0-1.4,0.2-1.8,0.7C82.9,22,82.6,22.7,82.6,23.6z"/>
		<path class="st1" d="M94,26.8h-0.5l-3.8-5.7h0c0,0.7,0.1,1.2,0.1,1.5v4.2h-0.4v-6.4h0.4l3.8,5.7h0c0-0.5,0-1,0-1.5v-4.2H94V26.8z"
			/>
		<path class="st1" d="M101,26.8h-0.4l-1.4-5c-0.1-0.4-0.2-0.7-0.3-1c0,0.3-0.1,0.5-0.2,0.9c-0.1,0.3-0.6,2-1.4,5.1H97l-1.8-6.4h0.5
			l1.1,4.1c0,0.2,0.1,0.3,0.1,0.5c0,0.1,0.1,0.3,0.1,0.4c0,0.1,0.1,0.2,0.1,0.4c0,0.1,0,0.2,0.1,0.3c0.1-0.4,0.2-1,0.4-1.8l1.1-3.9
			h0.5l1.3,4.5c0.1,0.5,0.3,0.9,0.3,1.2c0-0.2,0.1-0.4,0.1-0.7c0.1-0.2,0.5-1.9,1.4-5h0.5L101,26.8z"/>
		<path class="st1" d="M107,24.5h-2.6l-0.9,2.3H103l2.6-6.5h0.3l2.5,6.5h-0.5L107,24.5z M104.5,24.1h2.3l-0.9-2.3
			c-0.1-0.2-0.2-0.4-0.3-0.8c-0.1,0.3-0.2,0.5-0.3,0.8L104.5,24.1z"/>
		<path class="st1" d="M109.7,24v2.8h-0.4v-6.4h1.5c0.8,0,1.4,0.1,1.8,0.4c0.4,0.3,0.6,0.7,0.6,1.3c0,0.4-0.1,0.8-0.3,1.1
			c-0.2,0.3-0.6,0.5-1,0.6l1.7,2.9H113l-1.7-2.8H109.7z M109.7,23.6h1.2c0.5,0,1-0.1,1.3-0.4c0.3-0.2,0.4-0.6,0.4-1.1
			c0-0.5-0.1-0.8-0.4-1.1s-0.8-0.3-1.4-0.3h-1.1V23.6z"/>
		<path class="st1" d="M119.5,23.5c0,1.1-0.3,1.9-0.8,2.4c-0.6,0.6-1.4,0.8-2.5,0.8h-1.5v-6.4h1.7c1,0,1.8,0.3,2.3,0.8
			C119.3,21.7,119.5,22.5,119.5,23.5z M119,23.6c0-0.9-0.2-1.6-0.7-2.1c-0.5-0.5-1.2-0.7-2.1-0.7h-1.2v5.6h1.1
			C118.1,26.4,119,25.5,119,23.6z"/>
	</g>

		<linearGradient id="Path_578_1_" gradientUnits="userSpaceOnUse" x1="-235.5796" y1="396.4166" x2="-235.5976" y2="397.3666" gradientTransform="matrix(27.5059 0 0 -26.6289 6493.9355 10594.4824)">
		<stop  offset="0" style="stop-color:#38BE43;stop-opacity:0"/>
		<stop  offset="1" style="stop-color:#38BE43"/>
	</linearGradient>
	<path id="Path_578" class="st2" d="M0,28.8h10.2l6.2-6.4l11.1-11.6l-8.3-8.6H9l8.3,8.6L0,28.8z"/>
</g>
</svg>
