<?xml version="1.0" encoding="UTF-8"?>
<svg width="32px" height="29px" viewBox="0 0 32 29" version="1.1" xmlns="http://www.w3.org/2000/svg" xmlns:xlink="http://www.w3.org/1999/xlink">
    <!-- Generator: Sketch 61.2 (89653) - https://sketch.com -->
    <title>Group 2</title>
    <desc>Created with Sketch.</desc>
    <g id="Page-1" stroke="none" stroke-width="1" fill="none" fill-rule="evenodd">
        <g id="Enter-email" transform="translate(-118.000000, -74.000000)">
            <g id="Group-2" transform="translate(120.000000, 75.000000)">
                <path d="M22.7240843,7.92914873 L22.5492302,8.09664063 C21.9509845,8.66969701 21.9305645,9.61922493 22.5036209,10.2174706 C22.5170491,10.2314891 22.5307482,10.2452455 22.5447104,10.2587322 L24.1147852,11.775337 L24.1147852,11.775337 L12.6314519,11.775337 C11.8030248,11.775337 11.1314519,12.4469099 11.1314519,13.275337 L11.1314519,13.525337 C11.1314519,14.3537641 11.8030248,15.025337 12.6314519,15.025337 L24.1147852,15.025337 L24.1147852,15.025337 L22.5447104,16.5419418 C21.9488658,17.1174944 21.932416,18.0670994 22.5079686,18.662944 C22.5214553,18.6769062 22.5352117,18.6906052 22.5492302,18.7040334 L22.7240843,18.8715253 C23.3187308,19.441134 24.2613872,19.4248771 24.8360391,18.8351028 L29.1114957,14.4471341 C29.6790366,13.864658 29.6790366,12.936016 29.1114957,12.3535399 L24.8360391,7.96557126 C24.2613872,7.37579695 23.3187308,7.35954001 22.7240843,7.92914873 Z" id="Path" fill="#FFFFFF" fill-rule="nonzero"></path>
                <path d="M22.1314519,4.71589868 C19.7951947,2.1721909 16.5716619,0.900337017 12.4608536,0.900337017 C6.29464122,0.900337017 3.51649244,4.47856139 2.20603853,6.52759022 C0.895584633,8.57661906 -2.5180228,16.6673396 3.96389091,23.1058906 C6.5389455,25.2267839 9.89727956,26.4875615 12.4608536,26.4875615 C15.9973265,26.4875615 19.2208592,25.3603379 22.1314519,23.1058906" id="Path-47" stroke="#FFFFFF" stroke-width="3" stroke-linecap="round"></path>
            </g>
        </g>
    </g>
</svg>