<svg xmlns="http://www.w3.org/2000/svg" width="107" height="48" viewBox="0 0 107 48">
  <g id="Logo" transform="translate(-1146 -60)">
    <path id="Typography" d="M-35.163-.006V-11.718h1.238V-.006Zm15.9-8.438A3.193,3.193,0,0,1-19.983-6.3a3.108,3.108,0,0,1-1.956,1.043l2.494,5.253h-1.328l-2.386-5.2h-2.709v5.2h-1.238V-11.718h4.557a3.221,3.221,0,0,1,2.386.9A3.215,3.215,0,0,1-19.266-8.444Zm-6.6-2.213v4.444h3.158a2.174,2.174,0,0,0,1.6-.6,2.138,2.138,0,0,0,.61-1.592,2.223,2.223,0,0,0-.61-1.628,2.139,2.139,0,0,0-1.6-.621ZM-6.9-.006l-.951-2.987h-4.665l-.933,2.987H-14.78l3.8-11.712h1.561L-5.575-.006Zm-5.311-3.94h4.055l-2.028-6.387ZM6.77-11.718H7.99V-.06h-1.2L1.028-9.505,1.046-.06H-.192V-11.718h1.2L6.77-2.273ZM18.056.192a4.19,4.19,0,0,1-2.9-1.016,3.1,3.1,0,0,1-1.139-2.384V-8.39a3.122,3.122,0,0,1,1.139-2.4,4.19,4.19,0,0,1,2.9-1.016,4.174,4.174,0,0,1,2.916,1.016,3.142,3.142,0,0,1,1.121,2.4v.36l-1.256.072-.018-.558a2.05,2.05,0,0,0-.763-1.538,2.861,2.861,0,0,0-2-.693,2.9,2.9,0,0,0-1.983.7,2.028,2.028,0,0,0-.8,1.529v5.343a2.1,2.1,0,0,0,.8,1.565,2.852,2.852,0,0,0,1.983.72,2.932,2.932,0,0,0,2-.666,2.047,2.047,0,0,0,.781-1.529l.018-.5,1.238.018v.36a3.16,3.16,0,0,1-1.077,2.4A4.185,4.185,0,0,1,18.056.192ZM35.837-8.444A3.193,3.193,0,0,1,35.119-6.3a3.108,3.108,0,0,1-1.956,1.043L35.658-.006H34.33l-2.386-5.2H29.234v5.2H28V-11.718h4.557a3.221,3.221,0,0,1,2.386.9A3.215,3.215,0,0,1,35.837-8.444Zm-6.6-2.213v4.444h3.158a2.174,2.174,0,0,0,1.6-.6,2.138,2.138,0,0,0,.61-1.592,2.223,2.223,0,0,0-.61-1.628,2.139,2.139,0,0,0-1.6-.621Z" transform="translate(1181.163 77.808)" fill="#fff"/>
    <g id="Initial" transform="translate(1224.957 53.437)">
      <path id="Path_11" data-name="Path 11" d="M15.217,105.2h0a.957.957,0,0,0-.917.982h0a.957.957,0,0,0,.917.982h0a.957.957,0,0,0,.917-.982h0A.935.935,0,0,0,15.217,105.2Z" transform="translate(-8.482 -80.367)" fill="#fff" fill-rule="evenodd"/>
      <path id="Path_12" data-name="Path 12" d="M5,76.3l-.536.37a1.039,1.039,0,0,0-.277,1.371h0a.888.888,0,0,0,1.281.3l.536-.37A1.031,1.031,0,0,0,6.285,76.6h0A.891.891,0,0,0,5,76.3Z" transform="translate(0 -56.692)" fill="#fff" fill-rule="evenodd"/>
      <path id="Path_13" data-name="Path 13" d="M9.108,46.272l-.64.463a1.027,1.027,0,0,0-.242,1.371h0a.882.882,0,0,0,1.281.259l.64-.463a1.027,1.027,0,0,0,.242-1.371h0A.9.9,0,0,0,9.108,46.272Z" transform="translate(-3.325 -32.22)" fill="#fff" fill-rule="evenodd"/>
      <path id="Path_14" data-name="Path 14" d="M27.629,20.037l-.761.537a1.027,1.027,0,0,0-.242,1.371h0a.882.882,0,0,0,1.281.259l.761-.537a1.027,1.027,0,0,0,.242-1.371h0A.884.884,0,0,0,27.629,20.037Z" transform="translate(-18.541 -10.837)" fill="#fff" fill-rule="evenodd"/>
      <path id="Path_15" data-name="Path 15" d="M57.938,6.737,56.467,7.792a1.027,1.027,0,0,0-.242,1.371h0a.882.882,0,0,0,1.281.259l1.471-1.056A1.027,1.027,0,0,0,59.219,7h0A.882.882,0,0,0,57.938,6.737Z" transform="translate(-43.018 0)" fill="#fff" fill-rule="evenodd"/>
      <path id="Path_16" data-name="Path 16" d="M87.838,9.537l-2.371,1.7a1.027,1.027,0,0,0-.242,1.371h0a.882.882,0,0,0,1.281.259l2.371-1.7A1.027,1.027,0,0,0,89.119,9.8h0A.879.879,0,0,0,87.838,9.537Z" transform="translate(-67 -2.281)" fill="#fff" fill-rule="evenodd"/>
      <path id="Path_17" data-name="Path 17" d="M114.308,21.468l-3.063,2.13A1.01,1.01,0,0,0,111,24.969h0a.9.9,0,0,0,1.281.259l3.063-2.149a1.01,1.01,0,0,0,.242-1.371h0A.91.91,0,0,0,114.308,21.468Z" transform="translate(-88.314 -12.009)" fill="#fff" fill-rule="evenodd"/>
      <path id="Path_18" data-name="Path 18" d="M121.138,53.372l-2.371,1.7a1.027,1.027,0,0,0-.242,1.371h0a.882.882,0,0,0,1.281.259l2.371-1.7a1.027,1.027,0,0,0,.242-1.371h0A.9.9,0,0,0,121.138,53.372Z" transform="translate(-94.538 -38.004)" fill="#fff" fill-rule="evenodd"/>
      <path id="Path_19" data-name="Path 19" d="M116.638,86.472l-1.471,1.056a1.027,1.027,0,0,0-.242,1.371h0a.882.882,0,0,0,1.281.259l1.471-1.056a1.027,1.027,0,0,0,.242-1.371h0A.9.9,0,0,0,116.638,86.472Z" transform="translate(-91.561 -64.974)" fill="#fff" fill-rule="evenodd"/>
      <path id="Path_20" data-name="Path 20" d="M96.729,111.672l-.761.537a1.027,1.027,0,0,0-.242,1.371h0a.882.882,0,0,0,1.281.259l.761-.537a1.027,1.027,0,0,0,.242-1.371h0A.9.9,0,0,0,96.729,111.672Z" transform="translate(-75.683 -85.506)" fill="#fff" fill-rule="evenodd"/>
      <path id="Path_21" data-name="Path 21" d="M68.208,123.172l-.64.463a1.027,1.027,0,0,0-.242,1.371h0a.882.882,0,0,0,1.281.259l.64-.463a1.027,1.027,0,0,0,.242-1.371h0A.9.9,0,0,0,68.208,123.172Z" transform="translate(-52.198 -94.876)" fill="#fff" fill-rule="evenodd"/>
      <path id="Path_22" data-name="Path 22" d="M39.2,118.8l-.536.37a1.031,1.031,0,0,0-.277,1.371h0a.888.888,0,0,0,1.281.3l.536-.37a1.031,1.031,0,0,0,.277-1.371h0A.891.891,0,0,0,39.2,118.8Z" transform="translate(-28.282 -91.32)" fill="#fff" fill-rule="evenodd"/>
    </g>
    <path id="Sub" d="M-50.306-3.5q.073.241.146.474t.13.469q.063.246.128.494t.12.492q.055.243.091.479a3.014,3.014,0,0,1,.036.461,2.832,2.832,0,0,1-.133.863,3.715,3.715,0,0,1-.37.807,4.718,4.718,0,0,1-.563.743,6.849,6.849,0,0,1-.708.666,7.717,7.717,0,0,1-.807.576A9.063,9.063,0,0,1-53.1,3.5l-.453-.9a8.514,8.514,0,0,0,1.063-.617,5.935,5.935,0,0,0,.919-.766,3.8,3.8,0,0,0,.648-.881,2.048,2.048,0,0,0,.245-.963,2.515,2.515,0,0,0-.034-.4q-.034-.21-.086-.43t-.115-.441q-.063-.22-.12-.43-.125-.43-.266-.861Zm3.6-4.084q.089,1.03.141,1.947t.068,1.742q.016.851.016,1.532,0,.41-.013,1.048a9.468,9.468,0,0,1-.086,1.145l-1.026-.056q.073-.8.1-1.583.016-.436.016-.871,0-.343-.01-.692-.036-1.348-.094-2.357t-.13-1.7Zm-2.479-.471a1.472,1.472,0,0,1,.169-.443,1.546,1.546,0,0,1,.3-.374,1.451,1.451,0,0,1,.391-.256,1.068,1.068,0,0,1,.438-.095,1.411,1.411,0,0,1,.417.056q.182.056.344.123.141.056.279.1a1.181,1.181,0,0,0,.3.046h.021a.515.515,0,0,0,.229-.056,1.087,1.087,0,0,0,.216-.141,1.437,1.437,0,0,0,.172-.167q.07-.082.1-.123l.594.379q-.005.01-.052.077a1.761,1.761,0,0,1-.133.161,2.528,2.528,0,0,1-.206.2,1.744,1.744,0,0,1-.268.192,1.6,1.6,0,0,1-.326.143,1.13,1.13,0,0,1-.344.051h-.031A1.457,1.457,0,0,1-47-8.241q-.193-.059-.362-.123t-.32-.11a.681.681,0,0,0-.2-.031.622.622,0,0,0-.109.01.3.3,0,0,0-.177.09.93.93,0,0,0-.148.184,1.52,1.52,0,0,0-.109.21q-.044.105-.065.167ZM-37.4,3.173q-.453,0-.938-.044a4.706,4.706,0,0,1-.93-.177,3.207,3.207,0,0,1-.823-.377,1.938,1.938,0,0,1-.617-.643,3.171,3.171,0,0,1-.505-1.85q0-.123.005-.251a10.2,10.2,0,0,1,.885-3.341l.953.379A8.937,8.937,0,0,0-40.186.094a2.269,2.269,0,0,0,.328,1.281,1.451,1.451,0,0,0,.529.464,2.613,2.613,0,0,0,.656.233A3.857,3.857,0,0,0-38,2.154q.336.01.6.01.151,0,.427-.023t.6-.079a6.616,6.616,0,0,0,.659-.151,3.3,3.3,0,0,0,.607-.233,1.564,1.564,0,0,0,.445-.328.631.631,0,0,0,.174-.441.275.275,0,0,0-.057-.146A.793.793,0,0,0-34.73.583a2.619,2.619,0,0,0-.331-.2,3.977,3.977,0,0,0-.5-.215Q-35.743.1-35.923.053t-.336-.092q-.156-.041-.286-.069t-.214-.044l-.115-.02.078-1h4.11v1H-34.03a1.749,1.749,0,0,1,.289.29,1.46,1.46,0,0,1,.174.284,1.065,1.065,0,0,1,.083.266,1.477,1.477,0,0,1,.021.236,1.541,1.541,0,0,1-.2.774,2.062,2.062,0,0,1-.521.589,3.19,3.19,0,0,1-.734.423,5.835,5.835,0,0,1-.846.279,6.486,6.486,0,0,1-.862.154A7.245,7.245,0,0,1-37.4,3.173Zm4.505-4.345h.115a1.234,1.234,0,0,0,.552-.12,1.549,1.549,0,0,0,.435-.318,2.117,2.117,0,0,0,.331-.453,4.061,4.061,0,0,0,.245-.535,5.666,5.666,0,0,0,.177-.561q.073-.282.125-.533l1.031.215q-.042.123-.1.318t-.117.418q-.057.223-.1.456a2.471,2.471,0,0,0-.042.433,1.373,1.373,0,0,0,.026.269.71.71,0,0,0,.089.233.463.463,0,0,0,.172.164.558.558,0,0,0,.276.061.828.828,0,0,0,.477-.143,1.491,1.491,0,0,0,.375-.374,2.694,2.694,0,0,0,.286-.523,5.253,5.253,0,0,0,.208-.594q.086-.3.141-.587t.086-.494l1,.179-.026.164q-.031.169-.07.407t-.07.507a4.2,4.2,0,0,0-.031.479,2.193,2.193,0,0,0,.029.361,1.07,1.07,0,0,0,.094.3.626.626,0,0,0,.172.215.491.491,0,0,0,.263.1,1.824,1.824,0,0,0,.188.01,1.19,1.19,0,0,0,.3-.038A.574.574,0,0,0-26-1.31a.683.683,0,0,0,.169-.3,1.451,1.451,0,0,0,.052-.4,2.724,2.724,0,0,0-.081-.63q-.081-.338-.193-.664t-.234-.6q-.122-.279-.206-.443l.912-.471.1.2q.073.146.167.359t.193.482q.1.269.185.561a5.591,5.591,0,0,1,.141.6,3.421,3.421,0,0,1,.055.6,2.4,2.4,0,0,1-.125.8,1.6,1.6,0,0,1-.375.607,1.642,1.642,0,0,1-.625.384,2.47,2.47,0,0,1-.849.133h-.036a1.353,1.353,0,0,1-.4-.061,1.852,1.852,0,0,1-.383-.167,1.981,1.981,0,0,1-.339-.246,1.625,1.625,0,0,1-.266-.3,2.476,2.476,0,0,1-.708.569,1.763,1.763,0,0,1-.839.21,1.729,1.729,0,0,1-.4-.049A1.7,1.7,0,0,1-30.472-.3a1.532,1.532,0,0,1-.341-.241,1,1,0,0,1-.237-.333,2.558,2.558,0,0,1-.333.295,2.033,2.033,0,0,1-.385.223,2.133,2.133,0,0,1-.461.141,2.937,2.937,0,0,1-.555.049h-.109ZM-19.925.714a4.452,4.452,0,0,1-.047-.641q0-.195.031-.546a4.707,4.707,0,0,1,.164-.828,6.15,6.15,0,0,1,.328-.9,7.241,7.241,0,0,1,.409-.776l.828.6a2.055,2.055,0,0,0-.156.264q-.089.172-.18.4t-.174.5a5.2,5.2,0,0,0-.138.571,4.638,4.638,0,0,0-.07.6q-.005.087-.005.169A2.958,2.958,0,0,0-18.9.57a1.994,1.994,0,0,0,.081.32,1.854,1.854,0,0,0,.18.379,2.236,2.236,0,0,0,.3.387A2.029,2.029,0,0,0-17.9,2a2.491,2.491,0,0,0,.6.246,3,3,0,0,0,.789.095,4.493,4.493,0,0,0,1-.1,2.789,2.789,0,0,0,.786-.3,2.037,2.037,0,0,0,.568-.482A1.971,1.971,0,0,0-13.81.811a3.145,3.145,0,0,0,.151-.886V-.137a4.779,4.779,0,0,0-.068-.81,4.808,4.808,0,0,0-.19-.751q-.122-.356-.242-.62a4.184,4.184,0,0,0-.211-.415,1.4,1.4,0,0,0-.1-.151l.865-.543.13.218q.115.192.263.512t.3.748a5.69,5.69,0,0,1,.232.925,5.2,5.2,0,0,1,.063.815q0,.113-.016.443a3.443,3.443,0,0,1-.2.884,3.048,3.048,0,0,1-.555,1,3.154,3.154,0,0,1-.831.694,3.789,3.789,0,0,1-1.05.407,5.379,5.379,0,0,1-1.216.133,4.642,4.642,0,0,1-1.247-.161A3.245,3.245,0,0,1-18.768,2.7a2.739,2.739,0,0,1-.753-.822A3.188,3.188,0,0,1-19.925.714Zm4.516-4.192-.849.835-.854-.84.849-.835Zm5.177-4.781q.224,2.08.266,3.73.016.851.016,1.6,0,.451-.013,1.2t-.086,1.6l-1.026-.056q.083-1.148.109-2.1.01-.43.01-.825,0-.477-.016-.9-.1-2.485-.281-4.1Zm4.24,7.737A2.933,2.933,0,0,1-6.283.76a4.632,4.632,0,0,1-.773,1.135,6.767,6.767,0,0,1-1.1.961,9.55,9.55,0,0,1-1.276.758l-.448-.907q.375-.19.745-.418a7.1,7.1,0,0,0,.7-.489,5.984,5.984,0,0,0,.6-.551A3.443,3.443,0,0,0-7.369.642a2.635,2.635,0,0,0,.284-.661,1.883,1.883,0,0,0,.068-.5,1.6,1.6,0,0,0-.01-.19Q-7.065-1-7.14-1.339T-7.3-2q-.089-.323-.177-.607t-.151-.474l.979-.3q.2.594.385,1.012a3.6,3.6,0,0,0,.385.682,1.4,1.4,0,0,0,.414.387.947.947,0,0,0,.477.123h.083v1H-5q-.073,0-.188-.005a1.231,1.231,0,0,1-.253-.041,1.274,1.274,0,0,1-.281-.113,1.079,1.079,0,0,1-.273-.215Zm.891-.651H-4.1q.3,0,.589-.013a2.669,2.669,0,0,0,.531-.074,1.445,1.445,0,0,0,.432-.182.806.806,0,0,0,.292-.336.982.982,0,0,0,.078-.272,1.607,1.607,0,0,0,.016-.231q0-.067-.01-.2a2.542,2.542,0,0,0-.068-.374,3.294,3.294,0,0,0-.167-.5l-.453-1.1.927-.451s.016.038.047.105.072.156.122.269.105.243.164.392.115.307.167.474a5.641,5.641,0,0,1,.271,1.312q.005.082.005.164a2.012,2.012,0,0,1-.156.82,1.694,1.694,0,0,1-.414.579,2.068,2.068,0,0,1-.591.369,3,3,0,0,1-.732.195,5.89,5.89,0,0,1-.826.056H-5.1Zm1.813,2.68-.844.83L-4.986,1.5l.844-.835Zm2.136.005L-2,2.348l-.854-.84.844-.83ZM1.2-8.259q.224,2.08.266,3.73.016.851.016,1.6,0,.451-.013,1.2t-.086,1.6L.358-.178q.083-1.148.109-2.1.01-.43.01-.825,0-.477-.016-.9-.1-2.485-.281-4.1ZM8.384-3.5q.073.241.146.474t.13.469q.063.246.128.494t.12.492q.055.243.091.479a3.015,3.015,0,0,1,.036.461A2.832,2.832,0,0,1,8.9.235a3.715,3.715,0,0,1-.37.807,4.718,4.718,0,0,1-.563.743,6.849,6.849,0,0,1-.708.666,7.717,7.717,0,0,1-.807.576,9.064,9.064,0,0,1-.862.474l-.453-.9A8.514,8.514,0,0,0,6.2,1.982a5.935,5.935,0,0,0,.919-.766A3.8,3.8,0,0,0,7.769.334a2.048,2.048,0,0,0,.245-.963,2.515,2.515,0,0,0-.034-.4q-.034-.21-.086-.43T7.78-1.9q-.063-.22-.12-.43-.125-.43-.266-.861ZM12.5-.173a3.541,3.541,0,0,1-.591-.059,6.4,6.4,0,0,1-.68-.156,5.639,5.639,0,0,1-.62-.215A1.479,1.479,0,0,1,10.2-.839l.427-.963a3.185,3.185,0,0,0,.464.238,4.57,4.57,0,0,0,.578.2,4.491,4.491,0,0,0,.635.126,3.041,3.041,0,0,0,.391.026q.12,0,.328-.018a1.7,1.7,0,0,0,.469-.12,1.08,1.08,0,0,0,.438-.313A.419.419,0,0,0,14-1.941a1.474,1.474,0,0,0-.042-.318,2.645,2.645,0,0,0-.185-.525,4.351,4.351,0,0,0-.307-.548,5.472,5.472,0,0,0-.4-.533,6.128,6.128,0,0,0-.456-.484,4.414,4.414,0,0,0-.482-.4,2.693,2.693,0,0,0-.479-.277l.422-.933a3.668,3.668,0,0,1,.617.359,5.937,5.937,0,0,1,.607.5,6.664,6.664,0,0,1,.565.6,6.79,6.79,0,0,1,.49.661,5.394,5.394,0,0,1,.38.687,3.684,3.684,0,0,1,.237.669,2.331,2.331,0,0,1,.06.518,1.916,1.916,0,0,1-.044.41,1.228,1.228,0,0,1-.115.313,1.351,1.351,0,0,1-.156.231,1.9,1.9,0,0,1-.44.387,2.62,2.62,0,0,1-.544.264,3.242,3.242,0,0,1-.607.149A4.329,4.329,0,0,1,12.5-.173ZM19.89,3.578,19.7-1.172q0-.031,0-.143a1.163,1.163,0,0,1,.039-.256,1.268,1.268,0,0,1,.125-.3.891.891,0,0,1,.255-.282,1.078,1.078,0,0,1,.164-.1A.882.882,0,0,1,20.5-2.33a1.431,1.431,0,0,1,.219-.015l.122,0a1.322,1.322,0,0,1,.279.054q.083-.231.2-.487a5.285,5.285,0,0,1,.258-.5,4.138,4.138,0,0,1,.318-.469,2.22,2.22,0,0,1,.385-.387,1.859,1.859,0,0,1,.456-.261,1.283,1.283,0,0,1,.464-.082h.057a1.9,1.9,0,0,1,.766.182,1.664,1.664,0,0,1,.594.489,1.949,1.949,0,0,1,.3.564,2.811,2.811,0,0,1,.143.676q.01.143.01.282a3.727,3.727,0,0,1-.039.5,2.138,2.138,0,0,1-.177.589,1.813,1.813,0,0,1-.367.535,1.287,1.287,0,0,1-.557.328.838.838,0,0,1-.135.01,1.6,1.6,0,0,1-.227-.02,2.738,2.738,0,0,1-.367-.09q-.229-.069-.518-.179T22.02-.87l-1.281-.466a.209.209,0,0,1,0,.028.725.725,0,0,0,0,.079q0,.067.005.2t.013.364q.008.233.021.587T20.8.785q.018.512.044,1.2t.063,1.591Zm2.526-5.385q.24.1.466.187l.424.156a3.718,3.718,0,0,0,.362.113q.164.041.2.046A1.112,1.112,0,0,0,24-1.61,2.4,2.4,0,0,0,24.067-2a2.286,2.286,0,0,0,.016-.266q0-.067-.01-.2a1.267,1.267,0,0,0-.057-.279,1.269,1.269,0,0,0-.19-.407.893.893,0,0,0-.227-.218.576.576,0,0,0-.216-.087,1.132,1.132,0,0,0-.159-.015h-.01a.6.6,0,0,0-.4.228,2.86,2.86,0,0,0-.438.643,3.22,3.22,0,0,0-.164.341q-.07.172-.128.315Zm6.433,1.64A3.138,3.138,0,0,1,27.872-.3a1.736,1.736,0,0,1-.685-.41,1.262,1.262,0,0,1-.263-.364,1.957,1.957,0,0,1-.135-.384,1.836,1.836,0,0,1-.049-.361q-.005-.172-.005-.295,0-.041,0-.243t.008-.52q.005-.318.005-.728t-.005-.856q0-.441-.01-.917T26.7-6.3q-.023-.446-.057-.822t-.081-.617l1.021-.184q.047.261.081.641t.057.825q.023.446.036.93t.013.945v2.572a2.724,2.724,0,0,0,.018.325.425.425,0,0,0,.138.264.816.816,0,0,0,.357.184,2.106,2.106,0,0,0,.565.067h.1v1Zm-.1-1h.6q.3,0,.557-.013a1.99,1.99,0,0,0,.464-.074,1.1,1.1,0,0,0,.365-.182.919.919,0,0,0,.26-.336.981.981,0,0,0,.078-.272,1.606,1.606,0,0,0,.016-.231q0-.067-.01-.2a2.543,2.543,0,0,0-.068-.374,3.294,3.294,0,0,0-.167-.5l-.453-1.1.927-.451s.016.038.047.105.072.156.122.269.105.243.164.392.115.307.167.474a5.641,5.641,0,0,1,.271,1.312q.005.082.005.164a2.012,2.012,0,0,1-.156.82,1.96,1.96,0,0,1-.383.579,1.784,1.784,0,0,1-.523.369,2.442,2.442,0,0,1-.664.195,5.245,5.245,0,0,1-.794.056h-.828Zm2.511-5.421-.849.835-.854-.84.849-.835ZM42.584-1.008a1.832,1.832,0,0,1-.323-.559A5.826,5.826,0,0,1,37.922-.152,8.259,8.259,0,0,1,35.3-.524a2.716,2.716,0,0,1-1.508-1.14,2.29,2.29,0,0,1-.232-.518,2.508,2.508,0,0,1-.1-.533q-.01-.133-.01-.261t.016-.32a2.36,2.36,0,0,1,.078-.423,5.846,5.846,0,0,1,.253-.771,3.131,3.131,0,0,1,.148-.32l.9.487s-.016.038-.047.1-.066.15-.1.256-.076.229-.112.369a2.126,2.126,0,0,0-.065.441q-.005.061-.005.128a2.194,2.194,0,0,0,.036.377,1.231,1.231,0,0,0,.167.423,1.913,1.913,0,0,0,1.117.789,7.015,7.015,0,0,0,2.091.266,8.368,8.368,0,0,0,1.958-.2A3.408,3.408,0,0,0,41.224-2a2.289,2.289,0,0,0,.411-.4,2.957,2.957,0,0,0,.294-.456,3.819,3.819,0,0,0,.208-.477q.086-.241.154-.471l.99.266q-.026.092-.06.228t-.06.277q-.026.141-.042.274a1.446,1.446,0,0,0-.016.195v.041a2.507,2.507,0,0,0,.068.461,1.019,1.019,0,0,0,.219.43,1.478,1.478,0,0,0,1.214.461h.13v1h-.146A2.436,2.436,0,0,1,42.584-1.008ZM38.141-5.2l-.844.83-.854-.835.844-.835Zm2.136.005-.844.835-.854-.84.844-.83Zm8.136,4.028v1h-.1a1.927,1.927,0,0,1-.875-.177A1.7,1.7,0,0,1,46.86-.8a2.008,2.008,0,0,1-.849.479,4.537,4.537,0,0,1-1.287.156h-.193v-1h.193A2.071,2.071,0,0,0,46-1.482a1.1,1.1,0,0,0,.4-.92A4.1,4.1,0,0,0,46.347-3a5.116,5.116,0,0,0-.159-.692l.979-.272q.052.179.089.346t.063.351q.026.184.049.4t.044.487a3.563,3.563,0,0,0,.057.4,1.388,1.388,0,0,0,.138.389.845.845,0,0,0,.266.3.745.745,0,0,0,.435.118ZM47.235,1.667l-.849.835-.854-.84.849-.835ZM48.2-1.172h1.005q.3,0,.589-.013a2.669,2.669,0,0,0,.531-.074,1.445,1.445,0,0,0,.432-.182.806.806,0,0,0,.292-.336.982.982,0,0,0,.078-.272,1.607,1.607,0,0,0,.016-.231q0-.067-.01-.2a2.542,2.542,0,0,0-.068-.374,3.3,3.3,0,0,0-.167-.5l-.453-1.1.927-.451s.016.038.047.105.072.156.122.269.105.243.164.392.115.307.167.474a5.641,5.641,0,0,1,.271,1.312q.005.082.005.164a2.012,2.012,0,0,1-.156.82,1.694,1.694,0,0,1-.414.579,2.068,2.068,0,0,1-.591.369,3,3,0,0,1-.732.195,5.89,5.89,0,0,1-.826.056H48.2Zm2.547-5.5.844-.83.854.84-.844.83Zm-2.287-.005.844-.835.854.84-.844.835Zm1.255-1.542.771-.758.776.763-.771.758Z" transform="translate(1199.551 104.386)" fill="#fff"/>
  </g>
</svg>
