<svg xmlns="http://www.w3.org/2000/svg" viewBox="0 0 77.13 28.61">
  <defs></defs>
  <g id="Layer_2" data-name="Layer 2">
    <g id="Layer_1-2" data-name="Layer 1">
      <path fill="#231f20"
            d="M2.24,17.78a3.64,3.64,0,0,1-2.22-3c0-.11,0-.27,0-.48A8,8,0,0,1,.22,12.5a8.58,8.58,0,0,1,.56-1.69l1.43.71a8.09,8.09,0,0,0-.59,2.59,2.63,2.63,0,0,0,0,.44c.11.75.69,1.34,1.73,1.75a12.89,12.89,0,0,0,4.53.62A16.27,16.27,0,0,0,12,16.49a5.65,5.65,0,0,0,2.53-1.34A5.92,5.92,0,0,0,16,12.72l1.56.17a7,7,0,0,0-.36,2A1.62,1.62,0,0,0,19,16.71l.1.95-.1.94a3.25,3.25,0,0,1-2.15-.72,3,3,0,0,1-1-2,6.7,6.7,0,0,1-3.17,2.23,14.69,14.69,0,0,1-4.83.69A12.51,12.51,0,0,1,2.24,17.78ZM6.47,9.32,8,10.81,6.47,12.3,5,10.81Zm3.76,0,1.49,1.49L10.23,12.3,8.74,10.81Z"></path>
      <path fill="#231f20"
            d="M18.79,16.71h1.1a5,5,0,0,0,2.42-.44,1.47,1.47,0,0,0,.75-1.37,7.55,7.55,0,0,0-.42-2,16.45,16.45,0,0,0-.7-1.95l1.52-.8a19.12,19.12,0,0,1,.82,2.32,9,9,0,0,1,.42,2.45,3.32,3.32,0,0,1-1.26,2.74,5.84,5.84,0,0,1-3.55.93h-1.1ZM22.11,5.87l1.49,1.5L22.11,8.86,20.62,7.37Z"></path>
      <path fill="#231f20"
            d="M27.4,14.21c0-1.9,0-3.87-.11-5.91s-.17-3.36-.26-4L28.71,4c.08.65.17,2.05.26,4.22s.14,4.21.14,6.16-.05,3.4-.15,4.32l-1.7-.21A42.08,42.08,0,0,0,27.4,14.21Z"></path>
      <path fill="#231f20"
            d="M35.79,21.24a4.09,4.09,0,0,0,1.93-2.62A15.29,15.29,0,0,1,34,18.3a2.8,2.8,0,0,1-2-1.44,3.44,3.44,0,0,1-.34-1.58,5.52,5.52,0,0,1,.47-2.18,5.33,5.33,0,0,1,1.26-1.81,2.51,2.51,0,0,1,1.69-.71,2.72,2.72,0,0,1,2,.9,6.74,6.74,0,0,1,1.41,2.31,11.6,11.6,0,0,1,.68,2.92H40l.11.95L40,18.6h-.79a6,6,0,0,1-2.3,3.82,12,12,0,0,1-5.16,2.21L31.21,23A14.09,14.09,0,0,0,35.79,21.24Zm-.92-4.72a17.59,17.59,0,0,0,2.87.19,8,8,0,0,0-.91-3,2.16,2.16,0,0,0-1.74-1.32,1.23,1.23,0,0,0-.9.37,3.22,3.22,0,0,0-1,2.23,1.46,1.46,0,0,0,.19.78A2.06,2.06,0,0,0,34.87,16.52Z"></path>
      <path fill="#231f20"
            d="M39.73,16.71h.69a2.32,2.32,0,0,0,1.75-.55,2.33,2.33,0,0,0,.52-1.68c0-.78-.06-2.5-.2-5.15s-.25-4.32-.34-5L43.83,4c.08.68.19,2.37.32,5.09s.2,4.48.2,5.29a4.42,4.42,0,0,1-1.05,3.09,3.66,3.66,0,0,1-2.85,1.15h-.72Z"></path>
      <g id="Group_3372" data-name="Group 3372">
        <g id="Group_1" data-name="Group 1">
          <rect id="Rectangle_2" data-name="Rectangle 2" fill="#0058ff" opacity="0.85" x="63.36" width="6.36"
                height="6.36"></rect>
          <rect id="Rectangle_10" data-name="Rectangle 10" fill="#0058ff" opacity="0.55" x="63.36" y="14.84"
                width="6.36" height="6.36"></rect>
          <rect id="Rectangle_6" data-name="Rectangle 6" opacity="0.7" fill="#0058ff" x="63.36" y="7.42" width="6.36"
                height="6.36"></rect>
          <rect id="Rectangle_5" data-name="Rectangle 5" fill="#0058ff" opacity="0.55" x="48.52" width="6.36"
                height="6.36"></rect>
          <rect id="Rectangle_3" data-name="Rectangle 3" fill="#0058ff" x="70.77" width="6.36" height="6.36"></rect>
          <rect id="Rectangle_11" data-name="Rectangle 11" opacity="0.7" fill="#0058ff" x="70.77" y="14.84" width="6.36"
                height="6.36"></rect>
          <rect id="Rectangle_8" data-name="Rectangle 8" fill="#0058ff" opacity="0.85" x="70.77" y="7.42" width="6.36"
                height="6.36"></rect>
          <rect id="Rectangle_15" data-name="Rectangle 15" fill="#0058ff" opacity="0.55" x="70.77" y="22.25"
                width="6.36" height="6.36"></rect>
          <rect id="Rectangle_4" data-name="Rectangle 4" opacity="0.7" fill="#0058ff" x="55.94" width="6.36"
                height="6.36"></rect>
          <rect id="Rectangle_9" data-name="Rectangle 9" fill="#0058ff" opacity="0.55" x="55.94" y="7.42" width="6.36"
                height="6.36"></rect>
        </g>
      </g>
    </g>
  </g>
</svg>