<svg xmlns="http://www.w3.org/2000/svg" width="110" height="20" viewBox="0 0 110 20">
  <g id="Logo" transform="translate(-1144 -64)">
    <g id="Initial" transform="translate(1234 64)">
      <path id="Path_11" data-name="Path 11" d="M15.064,105.2h0a.8.8,0,0,0-.764.818h0a.8.8,0,0,0,.764.818h0a.8.8,0,0,0,.764-.818h0A.779.779,0,0,0,15.064,105.2Z" transform="translate(-12.821 -89.975)" fill="#fff" fill-rule="evenodd"/>
      <path id="Path_12" data-name="Path 12" d="M4.844,76.275l-.447.309a.866.866,0,0,0-.231,1.142h0a.74.74,0,0,0,1.067.247l.447-.309a.859.859,0,0,0,.231-1.142h0A.743.743,0,0,0,4.844,76.275Z" transform="translate(-4.043 -65.403)" fill="#fff" fill-rule="evenodd"/>
      <path id="Path_13" data-name="Path 13" d="M8.934,46.245l-.534.386a.856.856,0,0,0-.2,1.142h0a.735.735,0,0,0,1.067.216L9.8,47.6a.856.856,0,0,0,.2-1.142h0A.747.747,0,0,0,8.934,46.245Z" transform="translate(-7.483 -40.003)" fill="#fff" fill-rule="evenodd"/>
      <path id="Path_14" data-name="Path 14" d="M27.435,20.008l-.634.448a.856.856,0,0,0-.2,1.142h0a.735.735,0,0,0,1.067.216l.634-.448a.856.856,0,0,0,.2-1.142h0A.737.737,0,0,0,27.435,20.008Z" transform="translate(-23.23 -17.81)" fill="#fff" fill-rule="evenodd"/>
      <path id="Path_15" data-name="Path 15" d="M57.626,6.708l-1.226.88a.856.856,0,0,0-.2,1.142h0a.735.735,0,0,0,1.067.216l1.226-.88a.856.856,0,0,0,.2-1.142h0A.735.735,0,0,0,57.626,6.708Z" transform="translate(-48.562 -6.563)" fill="#fff" fill-rule="evenodd"/>
      <path id="Path_16" data-name="Path 16" d="M87.376,9.508,85.4,10.928a.856.856,0,0,0-.2,1.142h0a.735.735,0,0,0,1.067.216l1.976-1.42a.856.856,0,0,0,.2-1.142h0A.733.733,0,0,0,87.376,9.508Z" transform="translate(-73.38 -8.931)" fill="#fff" fill-rule="evenodd"/>
      <path id="Path_17" data-name="Path 17" d="M113.73,21.44l-2.552,1.775a.842.842,0,0,0-.2,1.142h0a.747.747,0,0,0,1.067.216l2.552-1.79a.842.842,0,0,0,.2-1.142h0A.758.758,0,0,0,113.73,21.44Z" transform="translate(-95.437 -19.027)" fill="#fff" fill-rule="evenodd"/>
      <path id="Path_18" data-name="Path 18" d="M120.676,53.345l-1.976,1.42a.856.856,0,0,0-.2,1.142h0a.735.735,0,0,0,1.067.216l1.976-1.42a.856.856,0,0,0,.2-1.142h0A.747.747,0,0,0,120.676,53.345Z" transform="translate(-101.878 -46.007)" fill="#fff" fill-rule="evenodd"/>
      <path id="Path_19" data-name="Path 19" d="M116.326,86.445l-1.226.88a.856.856,0,0,0-.2,1.142h0a.735.735,0,0,0,1.067.216l1.226-.88a.856.856,0,0,0,.2-1.142h0A.747.747,0,0,0,116.326,86.445Z" transform="translate(-98.797 -73.998)" fill="#fff" fill-rule="evenodd"/>
      <path id="Path_20" data-name="Path 20" d="M96.535,111.645l-.634.448a.856.856,0,0,0-.2,1.142h0a.735.735,0,0,0,1.067.216L97.4,113a.856.856,0,0,0,.2-1.142h0A.747.747,0,0,0,96.535,111.645Z" transform="translate(-82.366 -95.309)" fill="#fff" fill-rule="evenodd"/>
      <path id="Path_21" data-name="Path 21" d="M68.034,123.145l-.534.386a.856.856,0,0,0-.2,1.142h0a.735.735,0,0,0,1.067.216l.534-.386a.856.856,0,0,0,.2-1.142h0A.749.749,0,0,0,68.034,123.145Z" transform="translate(-58.061 -105.034)" fill="#fff" fill-rule="evenodd"/>
      <path id="Path_22" data-name="Path 22" d="M39.044,118.775l-.447.309a.859.859,0,0,0-.231,1.142h0a.74.74,0,0,0,1.067.247l.447-.309a.859.859,0,0,0,.231-1.142h0A.743.743,0,0,0,39.044,118.775Z" transform="translate(-33.311 -101.343)" fill="#fff" fill-rule="evenodd"/>
    </g>
    <path id="Path_45" data-name="Path 45" d="M-53.441-5.458h-1.644V-17.137h1.644Zm12-4.721H-44.38v4.721h-1.652V-17.137H-41.9a5.152,5.152,0,0,1,3.25.9,3.131,3.131,0,0,1,1.139,2.618,3,3,0,0,1-.631,1.9,3.748,3.748,0,0,1-1.755,1.211l2.936,4.964v.093H-38.73Zm-2.944-1.264h2.539a2.991,2.991,0,0,0,1.95-.593,1.942,1.942,0,0,0,.726-1.586,2.047,2.047,0,0,0-.692-1.664,3.056,3.056,0,0,0-1.992-.586H-44.38ZM-23.9-8.508h-5.238l-1.178,3.05h-1.705l4.779-11.679h1.445l4.779,11.679H-22.7Zm-4.741-1.264h4.251l-2.133-5.464ZM-5.33-5.458H-6.982l-6.293-9v9h-1.659V-17.137h1.659l6.308,9.043v-9.043H-5.33ZM11.2-9.165A4.208,4.208,0,0,1,9.733-6.3a5.021,5.021,0,0,1-3.273,1A4.546,4.546,0,0,1,2.909-6.783a5.707,5.707,0,0,1-1.334-3.968v-1.121a6.312,6.312,0,0,1,.619-2.864,4.442,4.442,0,0,1,1.762-1.9A5.177,5.177,0,0,1,6.606-17.3,4.715,4.715,0,0,1,9.8-16.262a4.234,4.234,0,0,1,1.4,2.875H9.542A3.229,3.229,0,0,0,8.609-15.4a2.954,2.954,0,0,0-2-.625A3.041,3.041,0,0,0,4.125-14.94a4.757,4.757,0,0,0-.9,3.1V-10.7a4.874,4.874,0,0,0,.853,3.021A2.821,2.821,0,0,0,6.461-6.558a3.317,3.317,0,0,0,2.1-.582,3.159,3.159,0,0,0,.979-2.025Zm11.233-1.014H19.49v4.721H17.839V-17.137h4.137a5.152,5.152,0,0,1,3.25.9,3.131,3.131,0,0,1,1.139,2.618,3,3,0,0,1-.631,1.9,3.748,3.748,0,0,1-1.755,1.211l2.936,4.964v.093H25.141ZM19.49-11.444h2.539a2.991,2.991,0,0,0,1.95-.593,1.942,1.942,0,0,0,.726-1.586,2.047,2.047,0,0,0-.692-1.664,3.056,3.056,0,0,0-1.992-.586H19.49Z" transform="translate(1199.085 85.301)" fill="#fff"/>
  </g>
</svg>
