<?xml version="1.0" encoding="UTF-8"?>
<svg width="18px" height="18px" viewBox="0 0 18 18" version="1.1" xmlns="http://www.w3.org/2000/svg">
    <!-- Generator: Sketch 61.2 (89653) - https://sketch.com -->
    <title>Group 2</title>
    <desc>Created with Sketch.</desc>
    <g id="Page-1" stroke="none" stroke-width="1" fill="none" fill-rule="evenodd">
        <g id="Terms-and-Conditions" transform="translate(-1122.000000, -206.000000)">
            <g id="Group-3" transform="translate(1122.000000, 206.000000)">
                <g id="Group-2" transform="translate(0.000000, 0.000000)">
                    <path d="M4,3 L14.7279221,3 C15.2802068,3 15.7279221,3.44771525 15.7279221,4 L15.7279221,14.7279221 C15.7279221,15.2802068 15.2802068,15.7279221 14.7279221,15.7279221 L4,15.7279221 C3.44771525,15.7279221 3,15.2802068 3,14.7279221 L3,4 C3,3.44771525 3.44771525,3 4,3 Z" id="Rectangle" fill="#faad14" transform="translate(9.363961, 9.363961) rotate(-315.000000) translate(-9.853961, -9.363961) "></path>
                    <path d="M9.66214285,11.483961 L9.74396103,5.36396103 L8.60396103,5.36396103 L8.68032467,11.483961 L9.66214285,11.483961 Z M9.20941558,14.3694156 L10.0985065,13.5075974 L9.24759739,12.6294156 L8.36396103,13.5075974 L9.20941558,14.3694156 Z" id="!" fill="#FFFFFF" fill-rule="nonzero"></path>
                </g>
            </g>
        </g>
    </g>
</svg>