<svg xmlns="http://www.w3.org/2000/svg" width="668" height="540.001" viewBox="0 0 668 540.001">
                <path d="M-2599 3827h-668v-536a4 4 0 0 1 4-4h660a4 4 0 0 1 4 4v536zm-334-470a201.46 201.46 0 0 0-40.307 4.063 199 199 0 0 0-37.542 11.654 200.027 200.027 0 0 0-33.973 18.44 201.451 201.451 0 0 0-29.6 24.422 201.456 201.456 0 0 0-24.422 29.6 200.042 200.042 0 0 0-18.44 33.973 198.987 198.987 0 0 0-11.654 37.542A201.482 201.482 0 0 0-3133 3557a201.482 201.482 0 0 0 4.063 40.307 198.993 198.993 0 0 0 11.654 37.542 200 200 0 0 0 18.44 33.973 201.44 201.44 0 0 0 24.422 29.6 201.439 201.439 0 0 0 29.6 24.422 200.018 200.018 0 0 0 33.973 18.44 198.99 198.99 0 0 0 37.542 11.654A201.475 201.475 0 0 0-2933 3757a201.477 201.477 0 0 0 40.307-4.063 199 199 0 0 0 37.542-11.654 200.034 200.034 0 0 0 33.973-18.44 201.462 201.462 0 0 0 29.6-24.422 201.434 201.434 0 0 0 24.422-29.6 200.02 200.02 0 0 0 18.44-33.973 198.993 198.993 0 0 0 11.654-37.542A201.5 201.5 0 0 0-2733 3557a201.493 201.493 0 0 0-4.063-40.307 198.987 198.987 0 0 0-11.654-37.542 200 200 0 0 0-18.44-33.973 201.435 201.435 0 0 0-24.422-29.6 201.462 201.462 0 0 0-29.6-24.422 200.017 200.017 0 0 0-33.973-18.44 199 199 0 0 0-37.542-11.654A201.461 201.461 0 0 0-2933 3357z" opacity="0.6" transform="translate(-386 -106) translate(248 -74) translate(-149 74) translate(3554 -3181)"/>
</svg>
