<svg xmlns="http://www.w3.org/2000/svg" width="868" height="740" viewBox="0 0 868 740"><defs><style>.a{opacity:0.6;}.b,.d{fill:none;}.b{stroke:#00c073;stroke-width:2px;stroke-dasharray:6 4;}.c{stroke:none;}</style></defs><g transform="translate(-286 -6)"><g transform="translate(248 -74)"><g transform="translate(-149 74)"><path class="a" d="M-2499,3927h-868V3191a4,4,0,0,1,4-4h860a4,4,0,0,1,4,4Zm-426-507a8.009,8.009,0,0,0-8,8v359a8.009,8.009,0,0,0,8,8h286a8.01,8.01,0,0,0,8-8V3428a8.009,8.009,0,0,0-8-8Z" transform="translate(3554 -3181)"/></g></g><g class="b" transform="translate(720 239)"><rect class="c" width="302" height="375" rx="8"/><rect class="d" x="-1" y="-1" width="304" height="377" rx="9"/></g></g></svg>